# AST/ASF file generated using VICON BodyLanguage
# -----------------------------------------------
:version 1.10
:name VICON
:units
  mass 1.0
  length 0.45
  angle deg
:documentation
   .ast/.asf automatically generated from VICON data using
   VICON BodyBuilder and BodyLanguage model FoxedUp or BRILLIANT.MOD
:root
   order TX TY TZ RX RY RZ
   axis XYZ
   position 0 0 0  
   orientation 0 0 0 
:bonedata
  begin
     id 1 
     name lhipjoint
     direction 0.567725 -0.736092 0.368589 
     length 2.42353 
     axis 0 0 0  XYZ
  end
  begin
     id 2 
     name lfemur
     direction 0.34202 -0.939693 0  
     length 7.24894  
     axis 0 0 20  XYZ
    dof rx ry rz
    limits (-160.0 20.0)
           (-70.0 70.0)
           (-60.0 70.0)
  end
  begin
     id 3 
     name ltibia
     direction 0.34202 -0.939693 0   
     length 7.6997   
     axis 0 0 20   XYZ
    dof rx
    limits (-10.0 170.0)
  end
  begin
     id 4 
     name lfoot
     direction 0.100767 -0.276854 0.955614   
     length 2.37556   
     axis -90 7.62852e-016 20   XYZ
    dof rx rz
    limits (-45.0 90.0)
           (-70.0 20.0)
  end
  begin
     id 5 
     name ltoes
     direction 1.53592e-011 -4.21894e-011 1   
     length 1.18363   
     axis -90 7.62852e-016 20   XYZ
    dof rx
    limits (-90.0 20.0)
  end
  begin
     id 6 
     name rhipjoint
     direction -0.556459 -0.742938 0.372017   
     length 2.4012  
     axis 0 0 0  XYZ 
  end
  begin
     id 7 
     name rfemur
     direction -0.34202 -0.939693 0   
     length 7.5119   
     axis 0 0 -20   XYZ
    dof rx ry rz
    limits (-160.0 20.0)
           (-70.0 70.0)
           (-70.0 60.0)
  end
  begin
     id 8 
     name rtibia
     direction -0.34202 -0.939693 0   
     length 7.50155   
     axis 0 0 -20   XYZ
    dof rx
    limits (-10.0 170.0)
 end
 begin
     id 9 
     name rfoot
     direction -0.118427 -0.325376 0.938139   
     length 2.32487  
     axis -90 -7.62852e-016 -20   XYZ
    dof rx rz
    limits (-45.0 90.0)
           (-20.0 70.0)
  end
  begin
     id 10 
     name rtoes
     direction -1.53525e-011 -4.21868e-011 1   
     length 1.15233   
     axis -90 -7.62852e-016 -20   XYZ
    dof rx
    limits (-90.0 20.0)
  end
  begin
     id 11 
     name lowerback
     direction 0.0287568 0.999577 -0.00434502   
     length 2.15243   
     axis 0 0 0   XYZ
    dof rx ry rz
    limits (-20.0 45.0)
           (-30.0 30.0)
           (-30.0 30.0)
  end
  begin
     id 12 
     name upperback
     direction 0.0294009 0.99956 0.00404628   
     length 2.15427   
     axis 0 0 0   XYZ
    dof rx ry rz
    limits (-20.0 45.0)
           (-30.0 30.0)
           (-30.0 30.0)
  end
  begin
     id 13 
     name thorax
     direction 0.0151014 0.999868 0.0059419   
     length 2.14898   
     axis 0 0 0   XYZ
    dof rx ry rz
    limits (-20.0 45.0)
           (-30.0 30.0)
           (-30.0 30.0)
  end
  begin
     id 14 
     name lowerneck
     direction -0.0249197 0.989906 0.139515   
     length 1.6861   
     axis 0 0 0   XYZ
    dof rx ry rz
    limits (-20.0 45.0)
           (-30.0 30.0)
           (-30.0 30.0)
  end
  begin
     id 15 
     name upperneck
     direction 0.0438463 0.988795 -0.142693   
     length 1.71276   
     axis 0 0 0   XYZ
    dof rx ry rz
    limits (-20.0 45.0)
           (-30.0 30.0)
           (-30.0 30.0)
  end
  begin
     id 16
     name head
     direction 0.0148499 0.997845 -0.0639186  
     length 1.7209  
     axis 0 0 0   XYZ
    dof rx ry rz
    limits (-20.0 45.0)
           (-30.0 30.0)
           (-30.0 30.0)
  end
  begin
     id 17 
     name lclavicle
     direction 0.940298 0.323464 -0.105876  
     length 3.9048  
     axis 0 0 0   XYZ
    dof ry rz
    limits (-20.0 10.0)
           (0.0 20.0)
  end
  begin
     id 18 
     name lhumerus
     direction 1 -4.48954e-011 -4.9675e-028   
     length 4.6851   
     axis 180 -30 -90   XYZ
    dof rx ry rz
    limits (-60.0 90.0)
           (-90.0 90.0)
           (-90.0 90.0)
  end
  begin
     id 19
     name lradius
     direction 1 -4.48992e-011 -1.03359e-026   
     length 3.39626   
     axis 180 -30 -90   XYZ
    dof rx
    limits (-10.0 170.0)
  end
  begin
     id 20
     name lwrist
     direction 1 -4.48906e-011 -1.67336e-026   
     length 1.69813   
     axis 9.90442e-015 90 90   XYZ
    dof ry
    limits (-180.0 0.0)
 end
  begin
     id 21 
     name lhand
     direction 1 -4.49006e-011 -3.34673e-026   
     length 0.486078   
     axis 2.1355e-014 90 90   XYZ
    dof rx rz
    limits (-90.0 90.0)
           (-45.0 45.0)
  end
  begin
     id 22 
     name lfingers
     direction 1 -4.48992e-011 -6.69345e-026   
     length 0.391889   
     axis 4.27099e-014 90 90   XYZ
    dof rx
    limits (0.0 90.0)
  end
  begin
     id 23
     name lthumb
     direction 0.707107 -6.34926e-011 0.707107   
     length 0.562676   
     axis -90 45 2.85299e-015   XYZ
    dof rx rz
    limits (-45.0 45.0)
           (-45.0 45.0)
  end
  begin
     id 24 
     name rclavicle
     direction -0.882459 0.414895 -0.221648   
     length 3.44646  
     axis 0 0 0   XYZ 
    dof ry rz
    limits (-10.0 20.0)
           (-20.0 0.0)
  end
  begin
     id 25 
     name rhumerus
     direction -1 -4.48962e-011 -2.37984e-027  
     length 5.55576   
     axis 180 30 90   XYZ
    dof rx ry rz
    limits (-90.0 60.0)
           (-90.0 90.0)
           (-90.0 90.0)
  end
  begin
     id 26 
     name rradius
     direction -1 -4.48982e-011 -6.86791e-027   
     length 3.32774   
     axis 180 30 90   XYZ
    dof rx
    limits (-10.0 170.0)
  end
  begin
     id 27 
     name rwrist
     direction -1 -4.48961e-011 -1.67336e-026   
     length 1.66387   
     axis 9.90442e-015 -90 -90   XYZ
    dof ry
    limits (-180.0 0.0)
  end
  begin
     id 28
     name rhand
     direction -1 -4.4897e-011 -3.34673e-026   
     length 0.507628   
     axis 2.1355e-014 -90 -90   XYZ
    dof rx rz
    limits (-90.0 90.0)
           (-45.0 45.0)
  end
  begin
     id 29
     name rfingers
     direction -1 -4.48854e-011 -6.69345e-026   
     length 0.409263   
     axis 4.27099e-014 -90 -90   XYZ
    dof rx
    limits (0.0 90.0)
  end
  begin
     id 30
     name rthumb
     direction -0.707107 -6.34913e-011 0.707107   
     length 0.587622   
     axis -90 -45 -2.85299e-015   XYZ
    dof rx rz
    limits (-45.0 45.0)
           (-45.0 45.0)
  end
:hierarchy
  begin
    root lhipjoint rhipjoint lowerback
    lhipjoint lfemur
    lfemur ltibia
    ltibia lfoot
    lfoot ltoes
    rhipjoint rfemur
    rfemur rtibia
    rtibia rfoot
    rfoot rtoes
    lowerback upperback
    upperback thorax
    thorax lowerneck lclavicle rclavicle
    lowerneck upperneck
    upperneck head
    lclavicle lhumerus
    lhumerus lradius
    lradius lwrist
    lwrist lhand lthumb
    lhand lfingers
    rclavicle rhumerus
    rhumerus rradius
    rradius rwrist
    rwrist rhand rthumb
    rhand rfingers
  end

#!OML:ASF E:\motion texture\Top Level 1\Subject 1\Session 1\male.ASF
:FULLY-SPECIFIED
:DEGREES
1
root 45.0003 17.8695 4.35628 147.644 -84.2263 -140.815
lowerback -4.88387 -0.577817 2.58605
upperback -2.80934 -0.990737 3.0673
thorax -0.138541 -0.547325 1.65423
lowerneck -11.3837 -8.97884 -13.4954
upperneck 11.114 -10.2797 2.90799
head 6.08604 -5.38213 2.10046
rclavicle 1.45982e-014 -1.47101e-014
rhumerus -25.9531 -10.213 -82.8594
rradius 23.5364
rwrist 11.789
rhand -13.3533 -28.6373
rfingers 7.12502
rthumb 12.7526 -58.2278
lclavicle 1.45982e-014 -1.47101e-014
lhumerus -25.9036 17.3625 85.4773
lradius 18.7173
lwrist -29.3538
lhand -3.03936 30.3745
lfingers 7.12502
lthumb 22.6762 59.0622
rfemur -6.35295 3.13498 25.7159
rtibia 13.5477
rfoot -10.3322 -14.5298
rtoes 18.046
lfemur -6.0197 -8.66363 -12.9638
ltibia 11.4591
lfoot -8.63686 0.515109
ltoes -9.72922
2
root 45.0081 17.8693 4.35749 147.116 -84.3593 -140.313
lowerback -4.85509 -0.590447 2.55483
upperback -2.77282 -1.00397 3.039
thorax -0.116803 -0.552586 1.64192
lowerneck -11.3928 -9.00482 -13.4661
upperneck 11.0823 -10.3139 2.88115
head 6.07706 -5.39832 2.08407
rclavicle 5.93869e-015 -1.07344e-014
rhumerus -25.7017 -9.87873 -83.2692
rradius 23.8449
rwrist 10.9766
rhand -13.5696 -29.5204
rfingers 7.12502
rthumb 12.5441 -59.1238
lclavicle 5.93869e-015 -1.07344e-014
lhumerus -25.5384 16.6957 85.9695
lradius 18.8116
lwrist -28.3804
lhand -2.33189 30.6635
lfingers 7.12502
lthumb 23.355 59.2666
rfemur -6.35352 3.07068 25.6689
rtibia 13.5529
rfoot -10.3532 -14.5951
rtoes 18.0625
lfemur -6.0794 -8.77024 -13.0213
ltibia 11.5417
lfoot -8.66674 0.474102
ltoes -9.42553
3
root 45.0196 17.8685 4.35708 146.381 -84.4644 -139.559
lowerback -4.81925 -0.603111 2.53344
upperback -2.76144 -1.01745 3.0232
thorax -0.124834 -0.558697 1.63735
lowerneck -11.4232 -9.03917 -13.4499
upperneck 11.1124 -10.3593 2.88637
head 6.09473 -5.41942 2.07637
rclavicle 1.23619e-014 -1.94809e-014
rhumerus -25.4618 -9.4979 -83.7019
rradius 24.1694
rwrist 10.2597
rhand -13.1546 -30.317
rfingers 7.12502
rthumb 12.9441 -59.8955
lclavicle 1.23619e-014 -1.94809e-014
lhumerus -25.2119 15.8734 86.526
lradius 19.0166
lwrist -27.1764
lhand -1.76266 31.6839
lfingers 7.12502
lthumb 23.901 60.2165
rfemur -6.42782 3.07088 25.6687
rtibia 13.5764
rfoot -10.3586 -14.7321
rtoes 18.0285
lfemur -6.21016 -8.72598 -12.9994
ltibia 11.5818
lfoot -8.60378 0.344572
ltoes -9.53311
4
root 45.0238 17.8671 4.35947 146.125 -84.4584 -139.325
lowerback -4.84192 -0.568224 2.56285
upperback -2.70333 -0.97374 3.00602
thorax -0.0536729 -0.535945 1.6043
lowerneck -11.4161 -9.06514 -13.4311
upperneck 11.0724 -10.4028 2.92694
head 6.08523 -5.43552 2.08262
rclavicle -4.78326e-015 5.56597e-015
rhumerus -25.2044 -9.02646 -84.1654
rradius 24.4653
rwrist 9.41225
rhand -13.8725 -29.1021
rfingers 7.12502
rthumb 12.252 -58.7232
lclavicle -4.78326e-015 5.56597e-015
lhumerus -24.8547 15.5888 86.8275
lradius 19.2639
lwrist -27.5886
lhand 1.94569 33.4763
lfingers 7.12502
lthumb 27.4527 61.4957
rfemur -6.42697 3.04524 25.6811
rtibia 13.5931
rfoot -10.4011 -14.7212
rtoes 18.1833
lfemur -6.14418 -8.7411 -12.9928
ltibia 11.4789
lfoot -8.59135 0.360196
ltoes -9.38275
5
root 45.0347 17.8682 4.35966 145.012 -84.56 -138.266
lowerback -4.73932 -0.589363 2.55846
upperback -2.6611 -0.996528 3.00162
thorax -0.0672107 -0.546408 1.60207
lowerneck -11.4317 -9.11257 -13.4115
upperneck 11.0363 -10.4649 2.91305
head 6.07931 -5.46441 2.06835
rclavicle 1.002e-014 1.63003e-014
rhumerus -24.8949 -8.64908 -84.5888
rradius 24.7346
rwrist 8.9301
rhand -13.5462 -29.4941
rfingers 7.12502
rthumb 12.5666 -59.0962
lclavicle 1.002e-014 1.63003e-014
lhumerus -24.5134 14.6666 87.3862
lradius 19.4506
lwrist -26.393
lhand 2.1616 34.1296
lfingers 7.12502
lthumb 27.6591 62.116
rfemur -6.40284 2.97306 25.7022
rtibia 13.5998
rfoot -10.4534 -14.7945
rtoes 18.3057
lfemur -6.18455 -8.79512 -12.9746
ltibia 11.5574
lfoot -8.62895 0.271905
ltoes -9.18921
6
root 45.0447 17.8678 4.36057 143.978 -84.5868 -137.224
lowerback -4.69872 -0.583898 2.61559
upperback -2.63709 -0.989985 3.00375
thorax -0.0661852 -0.543366 1.57285
lowerneck -11.3626 -9.20038 -13.1998
upperneck 10.8856 -10.5771 2.52258
head 5.99548 -5.5354 1.90791
rclavicle 1.90088e-015 1.59028e-015
rhumerus -24.6976 -8.17557 -85.0193
rradius 25.1777
rwrist 8.49469
rhand -13.2686 -30.2542
rfingers 7.12502
rthumb 12.8343 -59.8397
lclavicle 1.90088e-015 1.59028e-015
lhumerus -24.0867 14.0276 87.8724
lradius 19.4786
lwrist -25.5971
lhand -6.26308 24.9139
lfingers 7.12502
lthumb 19.5794 53.948
rfemur -6.5075 3.04812 25.7887
rtibia 13.7285
rfoot -10.5076 -14.9395
rtoes 18.376
lfemur -6.29403 -8.80224 -12.8788
ltibia 11.6526
lfoot -8.94142 0.178913
ltoes -6.56203
